<svg width="106" height="106" viewBox="0 0 106 106" fill="none" xmlns="http://www.w3.org/2000/svg">
<path d="M63 48V73M13 23H93L85.1 94.1C84.8292 96.5469 83.6653 98.8079 81.8313 100.45C79.9972 102.092 77.6218 103 75.16 103H30.84C28.3782 103 26.0028 102.092 24.1687 100.45C22.3347 98.8079 21.1708 96.5469 20.9 94.1L13 23ZM29.725 8.735C30.5338 7.01984 31.8135 5.56999 33.415 4.55455C35.0165 3.53912 36.8737 2.99998 38.77 3H67.23C69.1271 2.99903 70.9854 3.53773 72.5879 4.55322C74.1903 5.5687 75.4709 7.01907 76.28 8.735L83 23H23L29.725 8.735V8.735ZM3 23H103H3ZM43 48V73V48Z" stroke="white" stroke-width="5" stroke-linecap="round" stroke-linejoin="round"/>
</svg>
