<svg width="108" height="108" viewBox="0 0 108 108" fill="none" xmlns="http://www.w3.org/2000/svg">
<path d="M64 49V74M14 24H94L86.1 95.1C85.8292 97.5469 84.6653 99.8079 82.8313 101.45C80.9972 103.092 78.6218 104 76.16 104H31.84C29.3782 104 27.0028 103.092 25.1687 101.45C23.3347 99.8079 22.1708 97.5469 21.9 95.1L14 24ZM30.725 9.735C31.5338 8.01984 32.8135 6.56999 34.415 5.55455C36.0165 4.53912 37.8737 3.99998 39.77 4H68.23C70.1271 3.99903 71.9854 4.53773 73.5879 5.55322C75.1903 6.5687 76.4709 8.01907 77.28 9.735L84 24H24L30.725 9.735V9.735ZM4 24H104H4ZM44 49V74V49Z" stroke="black" stroke-width="7" stroke-linecap="round" stroke-linejoin="round"/>
</svg>
